<svg xmlns="http://www.w3.org/2000/svg" viewBox="0 0 32 32" fill="none">
  <rect width="32" height="32" rx="6" fill="#0B41CD"/>
  <path d="M6 10h8v6H6z" fill="#60A5FA" opacity="0.9"/>
  <path d="M14 6h12v10H14z" fill="#3B82F6" opacity="0.8"/>
  <path d="M6 16h10v10H6z" fill="#93C5FD" opacity="0.85"/>
  <path d="M16 16h10v10H16z" fill="#2563EB" opacity="0.75"/>
  <path d="M6 10h8v6H6zM14 6h12v10H14zM6 16h10v10H6zM16 16h10v10H16z" stroke="white" stroke-width="1" fill="none"/>
  <circle cx="10" cy="13" r="1.5" fill="white"/>
  <circle cx="20" cy="11" r="1.5" fill="white"/>
  <circle cx="23" cy="9" r="1" fill="white" opacity="0.7"/>
  <circle cx="11" cy="21" r="1.5" fill="white"/>
  <circle cx="8" cy="19" r="1" fill="white" opacity="0.7"/>
  <circle cx="21" cy="21" r="1.5" fill="white"/>
  <circle cx="19" cy="23" r="1" fill="white" opacity="0.7"/>
</svg>
